<?xml version="1.0" encoding="UTF-8" standalone="no"?>
<!-- Created with Inkscape (http://www.inkscape.org/) -->

<svg
   xmlns:dc="http://purl.org/dc/elements/1.1/"
   xmlns:cc="http://creativecommons.org/ns#"
   xmlns:rdf="http://www.w3.org/1999/02/22-rdf-syntax-ns#"
   xmlns:svg="http://www.w3.org/2000/svg"
   xmlns="http://www.w3.org/2000/svg"
   xmlns:sodipodi="http://sodipodi.sourceforge.net/DTD/sodipodi-0.dtd"
   xmlns:inkscape="http://www.inkscape.org/namespaces/inkscape"
   width="32"
   height="32"
   id="svg6044"
   version="1.1"
   inkscape:version="0.48.2 r9819"
   sodipodi:docname="icon-copy.svg">
  <defs
     id="defs6046" />
  <sodipodi:namedview
     id="base"
     pagecolor="#ffffff"
     bordercolor="#666666"
     borderopacity="1.0"
     inkscape:pageopacity="0.0"
     inkscape:pageshadow="2"
     inkscape:zoom="5.5000001"
     inkscape:cx="12.558813"
     inkscape:cy="1.022862"
     inkscape:current-layer="g3202"
     showgrid="true"
     inkscape:document-units="px"
     inkscape:grid-bbox="true"
     inkscape:window-width="1006"
     inkscape:window-height="674"
     inkscape:window-x="1693"
     inkscape:window-y="250"
     inkscape:window-maximized="0"
     fit-margin-top="0"
     fit-margin-left="0"
     fit-margin-right="0"
     fit-margin-bottom="0" />
  <metadata
     id="metadata6049">
    <rdf:RDF>
      <cc:Work
         rdf:about="">
        <dc:format>image/svg+xml</dc:format>
        <dc:type
           rdf:resource="http://purl.org/dc/dcmitype/StillImage" />
        <dc:title />
      </cc:Work>
    </rdf:RDF>
  </metadata>
  <g
     id="g3147"
     inkscape:label="Layer 1 copy copy"
     inkscape:groupmode="layer"
     style="display:inline">
    <g
       transform="matrix(0.03063659,0,0,-0.03063659,6.6032434,23.313226)"
       id="g3149" />
    <path
       style="fill:#000000;fill-opacity:1;stroke:#000000;stroke-width:0.00120627px;stroke-linecap:butt;stroke-linejoin:miter;stroke-opacity:1"
       d="m 11.025568,1.0710227 c -0.319799,0 -0.638334,0.031853 -0.9375,0.09375 -0.3017452,0.061896 -0.5913075,0.157457 -0.8749998,0.28125 -0.5673847,0.247586 -1.0561067,0.5561067 -1.46875,0.96875 -0.2063217,0.2063218 -0.3974427,0.4424929 -0.5625,0.6875 -0.0046,0.00665 0.00456,0.024579 0,0.03125 -0.158813,0.2386886 -0.3174766,0.4749463 -0.4375,0.75 -0.00381,0.00845 0.00377,0.022768 0,0.03125 -0.1178471,0.2750748 -0.2213571,0.5517719 -0.28125,0.84375 -0.065969,0.3081612 -0.09375,0.6073491 -0.09375,0.9375 l 0,1.375 -0.75,0 -0.4375,0 c -0.6395973,0 -1.2451153,0.127414 -1.8125,0.375 -0.5673847,0.247586 -1.0561067,0.5561067 -1.46875,0.96875 -0.4126433,0.4126436 -0.721164,0.9013653 -0.96875002,1.46875 -0.003636,0.00807 0.003599,0.023152 0,0.03125 -0.23946669,0.5591783 -0.375,1.1522283 -0.375,1.7812503 l 0,13.9375 c 0,0.639597 0.127414,1.224181 0.375,1.78125 0.24758602,0.557069 0.55610672,1.045791 0.96875002,1.46875 0.4126433,0.422959 0.9013653,0.783664 1.46875,1.03125 0.4788173,0.208938 1.0010049,0.248635 1.53125,0.28125 l -0.03125,0.03125 c 0.041268,0 0.094357,0.02094 0.15625,0.03125 0.061894,0.01031 0.1149833,0 0.15625,0 l 16.2499998,0 c 0.639597,0 1.255431,-0.09616 1.8125,-0.34375 0.567385,-0.247586 1.056107,-0.587357 1.46875,-1 0.006,-0.006 -0.006,-0.02522 0,-0.03125 0.416811,-0.416811 0.753501,-0.890451 1,-1.4375 0.0041,-0.0094 -0.004,-0.02185 0,-0.03125 0.247586,-0.557069 0.375,-1.141653 0.375,-1.78125 l 0,-0.1875 0,-1.1875 1.15625,0 c 0.639597,0 1.255431,-0.09616 1.8125,-0.34375 0.285786,-0.127016 0.56201,-0.264328 0.8125,-0.4375 0.245007,-0.165057 0.449928,-0.356178 0.65625,-0.5625 0.0056,-0.0056 -0.0056,-0.0256 0,-0.03125 0.205722,-0.205722 0.398267,-0.418802 0.5625,-0.65625 0.005,-0.0075 -0.005,-0.02375 0,-0.03125 0.162532,-0.237546 0.316182,-0.480937 0.4375,-0.75 0.004,-0.0092 -0.0039,-0.02205 0,-0.03125 0.123793,-0.278534 0.219354,-0.544583 0.28125,-0.84375 0.0619,-0.301745 0.09375,-0.617701 0.09375,-0.9375 l 0,-13.9375003 c 0,-0.639598 -0.127414,-1.2241811 -0.375,-1.78125 -0.247586,-0.5570687 -0.587357,-1.0457904 -1,-1.46875 -0.412643,-0.4229593 -0.901365,-0.752414 -1.46875,-1 -0.472821,-0.2063222 -0.977032,-0.3093629 -1.5,-0.34375 -0.04126,0 -0.09435,-0.020937 -0.15625,-0.03125 -0.06189,-0.010313 -0.114983,0 -0.15625,0 l -16.21875,0 z m 0,2.90625 13.65625,0 2.5625,0 c 0.47454,0 0.909569,0.1595691 1.25,0.5 0.340431,0.3404313 0.5,0.74421 0.5,1.21875 l 0,13.9375003 c 0,0.47454 -0.159569,0.878319 -0.5,1.21875 -0.340431,0.340431 -0.77546,0.5 -1.25,0.5 l -16.21875,0 c -0.474539,0 -0.909569,-0.159569 -1.2499998,-0.5 -0.3404307,-0.340431 -0.5,-0.744211 -0.5,-1.21875 l 0,-7.21875 0,-6.7187503 c 0,-0.118635 0.00997,-0.2334971 0.03125,-0.34375 0.042554,-0.2205063 0.1223385,-0.406771 0.25,-0.59375 0.063831,-0.093489 0.1336422,-0.1961435 0.21875,-0.28125 0.2553228,-0.2553231 0.5754908,-0.4049192 0.9062498,-0.46875 0.110253,-0.021277 0.225115,-0.03125 0.34375,-0.03125 z m -5.8437498,6 0.4375,0 0.75,0 0,5.3437503 0,4.3125 c 0,0.639597 0.127414,1.224181 0.375,1.78125 0.247586,0.557069 0.5873567,1.045791 1,1.46875 0.4126433,0.422959 0.9013653,0.783664 1.46875,1.03125 0.4728206,0.206322 0.9770318,0.278113 1.4999998,0.3125 0.04127,0 0.09436,0.02094 0.15625,0.03125 0.05228,0.0017 0.103478,0 0.15625,0 l 12.15625,0 0,1.1875 0,0.1875 c 0,0.47454 -0.190819,0.878319 -0.53125,1.21875 -0.340431,0.340431 -0.74421,0.5 -1.21875,0.5 l -16.2499998,0 c -0.4745393,0 -0.8783187,-0.159569 -1.21875,-0.5 -0.3404307,-0.340431 -0.5,-0.744211 -0.5,-1.21875 l 0,-7.21875 0,-6.71875 c 0,-0.47454 0.1595687,-0.878324 0.5,-1.21875 0.3404313,-0.340431 0.7442107,-0.5000003 1.21875,-0.5000003 z"
       id="path3213"
       inkscape:connector-curvature="0" />
  </g>
  <g
     style="display:inline"
     inkscape:groupmode="layer"
     inkscape:label="Layer 1 copy copy copy"
     id="g3202">
    <g
       id="g3204"
       transform="matrix(0.03063659,0,0,-0.03063659,6.6032434,23.313226)" />
  </g>
  <g
     inkscape:groupmode="layer"
     id="layer1"
     inkscape:label="Layer"
     style="display:inline" />
</svg>
