<?xml version="1.0" encoding="UTF-8" standalone="no"?>
<!-- Created with Inkscape (http://www.inkscape.org/) -->

<svg
   xmlns:dc="http://purl.org/dc/elements/1.1/"
   xmlns:cc="http://creativecommons.org/ns#"
   xmlns:rdf="http://www.w3.org/1999/02/22-rdf-syntax-ns#"
   xmlns:svg="http://www.w3.org/2000/svg"
   xmlns="http://www.w3.org/2000/svg"
   xmlns:sodipodi="http://sodipodi.sourceforge.net/DTD/sodipodi-0.dtd"
   xmlns:inkscape="http://www.inkscape.org/namespaces/inkscape"
   width="32"
   height="32"
   id="svg6044"
   version="1.1"
   inkscape:version="0.48.2 r9819"
   sodipodi:docname="icon-split.svg">
  <defs
     id="defs6046" />
  <sodipodi:namedview
     id="base"
     pagecolor="#ffffff"
     bordercolor="#666666"
     borderopacity="1.0"
     inkscape:pageopacity="0.0"
     inkscape:pageshadow="2"
     inkscape:zoom="22.196429"
     inkscape:cx="11.207884"
     inkscape:cy="20.212315"
     inkscape:current-layer="layer1"
     showgrid="true"
     inkscape:document-units="px"
     inkscape:grid-bbox="true"
     inkscape:window-width="1140"
     inkscape:window-height="640"
     inkscape:window-x="51"
     inkscape:window-y="44"
     inkscape:window-maximized="0"
     fit-margin-top="0"
     fit-margin-left="0"
     fit-margin-right="0"
     fit-margin-bottom="0" />
  <metadata
     id="metadata6049">
    <rdf:RDF>
      <cc:Work
         rdf:about="">
        <dc:format>image/svg+xml</dc:format>
        <dc:type
           rdf:resource="http://purl.org/dc/dcmitype/StillImage" />
        <dc:title></dc:title>
      </cc:Work>
    </rdf:RDF>
  </metadata>
  <g
     id="layer1"
     inkscape:label="Layer 1"
     inkscape:groupmode="layer">
    <path
       style="fill:#000000;fill-opacity:1;stroke:#000000;stroke-width:0.001;stroke-linecap:butt;stroke-linejoin:miter;stroke-miterlimit:4;stroke-opacity:1;stroke-dasharray:none"
       d="m 24.78125,1.78125 c -0.07729,-0.00292 -0.14875,0.00792 -0.21875,0.03125 -0.28,0.093333 -0.40625,0.3770833 -0.40625,0.84375 l 0,3.15625 -3.46875,0 c -1.143333,0 -2.18375,0.2404167 -3.09375,0.71875 -0.91,0.4783333 -1.73,1.105 -2.5,1.875 -0.77,0.77 -2.683075,3.255732 -2.683075,3.255732 -0.554462,0.04547 -1.223336,0.07968 -10.723175,0.05677 0.016236,2.621328 0.066939,0.798705 0.03125,4.875 6.5151992,-0.04826 9.482891,0.174322 10.96875,0.125 0.517025,0.804096 1.284593,1.785362 2.40625,3.03125 0.77,0.77 1.59,1.396667 2.5,1.875 0.91,0.478333 1.950417,0.71875 3.09375,0.71875 l 3.46875,0 0,3.15625 c 0,0.466667 0.12625,0.750417 0.40625,0.84375 0.28,0.09333 0.634583,-0.04833 1.03125,-0.375 L 31.28125,21.25 c 0.256667,-0.21 0.40625,-0.485833 0.40625,-0.8125 0,-0.303333 -0.149583,-0.54 -0.40625,-0.75 l -5.6875,-4.78125 C 25.197083,14.579583 24.8425,14.469167 24.5625,14.5625 c -0.28,0.09333 -0.40625,0.377083 -0.40625,0.84375 l 0,3 -3.46875,0 c -0.606667,0 -1.182083,-0.169583 -1.71875,-0.53125 C 18.432083,17.513333 17.9,17.0325 17.375,16.4375 c -0.525,-0.595 -1.049167,-1.26125 -1.5625,-2.03125 -0.07333,-0.11 -0.145417,-0.232798 -0.21875,-0.34375 0.06924,-0.104715 0.149506,-0.208634 0.21875,-0.3125 0.513333,-0.77 1.0375,-1.43625 1.5625,-2.03125 0.525,-0.595 1.057083,-1.075833 1.59375,-1.4375 0.536667,-0.3616667 1.112083,-0.5625 1.71875,-0.5625 l 3.46875,0 0,3.03125 c 0,0.466667 0.12625,0.75042 0.40625,0.84375 0.28,0.09333 0.634583,-0.04833 1.03125,-0.375 l 5.6875,-4.75 c 0.256667,-0.21 0.40625,-0.4779167 0.40625,-0.78125 0,-0.3266667 -0.149583,-0.57125 -0.40625,-0.78125 l -5.6875,-4.75 C 25.29625,1.9112497 25.013125,1.79 24.78125,1.78125 z"
       id="path3285"
       inkscape:connector-curvature="0"
       sodipodi:nodetypes="ssscssssccccsscssccsccsscsssscsssscssccsccs" />
  </g>
  <g
     inkscape:groupmode="layer"
     inkscape:label="Layer 1 copy"
     id="g3309" />
</svg>
